<svg width="342" height="578" viewBox="0 0 342 578" fill="none" xmlns="http://www.w3.org/2000/svg">
<rect x="255" y="401.996" width="85" height="88" fill="#26A8C0"/>
<rect x="85" y="49.9961" width="85" height="88" fill="#26A8C0"/>
<rect x="86" y="489.996" width="85" height="88" fill="#26A8C0"/>
<rect x="255" y="313.996" width="85" height="88" fill="#F6B32F"/>
<rect x="171" y="137.996" width="85" height="88" fill="#F6B32F"/>
<rect x="255" y="225.996" width="85" height="88" fill="#D9375C"/>
<rect x="86" y="401.996" width="85" height="88" fill="#4F6396"/>
<rect x="86" y="225.996" width="85" height="88" fill="#4F6396"/>
<ellipse cx="297.5" cy="533.496" rx="24.5" ry="23.5" fill="#2C234E"/>
<path d="M170.5 577.996C192.911 577.996 214.404 568.725 230.251 552.221C246.097 535.718 255 513.335 255 489.996C255 466.657 246.097 444.274 230.251 427.771C214.404 411.268 192.911 401.996 170.5 401.996L170.5 448.497C181.069 448.497 191.204 452.869 198.677 460.652C206.15 468.434 210.349 478.99 210.349 489.996C210.349 501.002 206.15 511.558 198.677 519.34C191.204 527.123 181.068 531.495 170.5 531.495V577.996Z" fill="#F6B32F"/>
<ellipse cx="169.5" cy="489.496" rx="42.5" ry="41.5" fill="#FE2E60"/>
<path d="M339 313.996L255 401.465V226.528L339 313.996Z" fill="#2C234E"/>
<ellipse cx="254.5" cy="313.996" rx="40.5" ry="42" fill="#51619D"/>
<rect x="170" y="313.996" width="85" height="88" fill="#D9375C"/>
<ellipse cx="213.5" cy="357.496" rx="24.5" ry="23.5" fill="white"/>
<path d="M86.5 314.996C108.911 314.996 130.404 305.619 146.251 288.929C162.097 272.238 171 249.6 171 225.996L86.5 225.996V314.996Z" fill="#2C234E"/>
<path d="M86.5 226.996C108.911 226.996 130.404 217.619 146.251 200.929C162.097 184.238 171 161.6 171 137.996L86.5 137.996V226.996Z" fill="#4F6396"/>
<path d="M84.6285 50.0713L171.392 50.1056L85.373 136.832L84.6285 50.0713Z" fill="#D9375C"/>
<rect x="253" y="402" width="85" height="88" fill="#26A8C0"/>
<rect x="83" y="50" width="85" height="88" fill="#26A8C0"/>
<rect x="84" y="490" width="85" height="88" fill="#26A8C0"/>
<rect x="253" y="314" width="85" height="88" fill="#F6B32F"/>
<rect x="169" y="138" width="85" height="88" fill="#F6B32F"/>
<rect x="253" y="226" width="85" height="88" fill="#D9375C"/>
<rect x="84" y="402" width="85" height="88" fill="#4F6396"/>
<rect x="84" y="226" width="85" height="88" fill="#4F6396"/>
<ellipse cx="295.5" cy="533.5" rx="24.5" ry="23.5" fill="#2C234E"/>
<path d="M168.5 578C190.911 578 212.404 568.729 228.251 552.225C244.097 535.722 253 513.339 253 490C253 466.661 244.097 444.278 228.251 427.775C212.404 411.271 190.911 402 168.5 402L168.5 448.501C179.069 448.501 189.204 452.873 196.677 460.656C204.15 468.438 208.349 478.994 208.349 490C208.349 501.006 204.15 511.562 196.677 519.344C189.204 527.127 179.068 531.499 168.5 531.499V578Z" fill="#F6B32F"/>
<ellipse cx="167.5" cy="489.5" rx="42.5" ry="41.5" fill="#FE2E60"/>
<path d="M337 314L253 401.469V226.531L337 314Z" fill="#2C234E"/>
<ellipse cx="252.5" cy="314" rx="40.5" ry="42" fill="#51619D"/>
<rect x="168" y="314" width="85" height="88" fill="#D9375C"/>
<ellipse cx="211.5" cy="357.5" rx="24.5" ry="23.5" fill="white"/>
<path d="M84.5 315C106.911 315 128.404 305.623 144.251 288.933C160.097 272.242 169 249.604 169 226L84.5 226V315Z" fill="#2C234E"/>
<path d="M84.5 227C106.911 227 128.404 217.623 144.251 200.933C160.097 184.242 169 161.604 169 138L84.5 138V227Z" fill="#4F6396"/>
<path d="M82.6285 50.0752L169.392 50.1095L83.373 136.836L82.6285 50.0752Z" fill="#D9375C"/>
<mask id="path-37-inside-1_375_37" fill="white">
<path d="M253.147 137.831C251.306 107.881 266.002 48.8106 339.519 52.1346C342.866 82.2582 330.279 141.571 253.147 137.831Z"/>
</mask>
<path d="M253.147 137.831L153.336 143.967L158.832 233.376L248.305 237.714L253.147 137.831ZM339.519 52.1346L438.907 41.0893L429.461 -43.9008L344.035 -47.7634L339.519 52.1346ZM253.147 137.831L352.959 131.695C353.08 133.662 352.903 134.101 352.901 134.107C352.875 134.217 352.385 136.431 350.068 139.749C347.37 143.614 343.021 147.696 337.573 150.277C332.306 152.773 330.339 151.822 335.002 152.033L339.519 52.1346L344.035 -47.7634C275.431 -50.8653 219.668 -22.8508 186.079 25.2609C157.168 66.6724 151.438 113.104 153.336 143.967L253.147 137.831ZM339.519 52.1346L240.13 63.1799C239.887 60.9929 240.035 60.1058 240.16 59.4688C240.309 58.7129 241.014 55.5616 243.913 51.3133C247.261 46.4079 252.283 41.9709 257.881 39.3975C263.062 37.0152 264.318 38.2553 257.99 37.9485L253.147 137.831L248.305 237.714C316.769 241.033 374.561 214.678 409.112 164.05C438.687 120.711 442.383 72.3732 438.907 41.0893L339.519 52.1346Z" fill="#26A8C0" mask="url(#path-37-inside-1_375_37)"/>
<mask id="path-39-inside-2_375_37" fill="white">
<path d="M255.384 140.347C285.334 138.506 344.404 153.203 341.08 226.719C310.957 230.066 251.644 217.479 255.384 140.347Z"/>
</mask>
<path d="M255.384 140.347L249.248 40.5358L159.839 46.0323L155.501 135.505L255.384 140.347ZM341.08 226.719L352.126 326.107L437.116 316.662L440.978 231.236L341.08 226.719ZM255.384 140.347L261.52 240.159C259.553 240.28 259.114 240.103 259.108 240.101C258.998 240.076 256.784 239.585 253.466 237.269C249.601 234.571 245.519 230.221 242.937 224.773C240.442 219.506 241.393 217.539 241.182 222.202L341.08 226.719L440.978 231.236C444.08 162.631 416.066 106.868 367.954 73.2794C326.542 44.3682 280.11 38.6384 249.248 40.5358L255.384 140.347ZM341.08 226.719L330.035 127.331C332.222 127.088 333.109 127.235 333.746 127.36C334.502 127.509 337.653 128.214 341.902 131.114C346.807 134.461 351.244 139.484 353.817 145.081C356.2 150.262 354.96 151.518 355.266 145.19L255.384 140.347L155.501 135.505C152.182 203.969 178.537 261.762 229.165 296.312C272.503 325.887 320.842 329.584 352.126 326.107L341.08 226.719Z" fill="#26A8C0" mask="url(#path-39-inside-2_375_37)"/>
<mask id="path-41-inside-3_375_37" fill="white">
<path d="M170.065 50.1522C200.015 48.2475 259.085 63.4508 255.761 139.502C225.638 142.965 166.325 129.944 170.065 50.1522Z"/>
</mask>
<path d="M170.065 50.1522L163.718 -49.6462L74.3659 -43.9637L70.1745 45.4708L170.065 50.1522ZM255.761 139.502L267.183 238.848L351.941 229.103L355.666 143.868L255.761 139.502ZM170.065 50.1522L176.412 149.951C174.111 150.097 173.344 149.884 173.047 149.812C172.606 149.705 170.202 149.088 166.842 146.662C162.946 143.847 159.262 139.621 157.07 134.836C154.994 130.304 156.111 129.33 155.857 135.135L255.761 139.502L355.666 143.868C358.654 75.5005 331.878 19.1475 283.94 -15.4745C242.332 -45.5241 195.298 -51.6545 163.718 -49.6462L170.065 50.1522ZM255.761 139.502L244.34 40.1563C246.862 39.8664 248.1 40.0321 249.066 40.2287C250.196 40.4585 253.577 41.3109 257.887 44.3539C262.832 47.8449 266.849 52.7581 269.023 57.6489C270.985 62.0653 269.605 62.3083 269.955 54.8337L170.065 50.1522L70.1745 45.4708C66.9738 113.766 92.1468 172.164 142.542 207.741C186.141 238.521 235.172 242.528 267.183 238.848L255.761 139.502Z" fill="#4F6396" mask="url(#path-41-inside-3_375_37)"/>
<mask id="path-43-inside-4_375_37" fill="white">
<path d="M169.147 225.827C167.306 195.18 182.002 134.736 255.519 138.138C258.866 168.962 246.279 229.654 169.147 225.827Z"/>
</mask>
<path d="M169.147 225.827L69.3271 231.824L74.7006 321.265L164.192 325.704L169.147 225.827ZM255.519 138.138L354.934 127.341L345.687 42.2025L260.14 38.2446L255.519 138.138ZM169.147 225.827L268.967 219.83C269 220.376 269.001 220.729 268.999 220.905C268.998 220.999 268.996 221.063 268.994 221.101C268.993 221.139 268.991 221.157 268.991 221.158C268.991 221.159 268.992 221.149 268.994 221.131C268.996 221.112 268.999 221.09 269.002 221.067C269.01 221.015 269.017 220.988 269.015 220.995C269.013 221.003 268.995 221.082 268.947 221.235C268.899 221.388 268.81 221.648 268.661 222.008C268.372 222.705 267.777 223.965 266.679 225.574C264.211 229.19 259.993 233.353 254.381 236.074C248.894 238.735 246.592 237.832 250.897 238.031L255.519 138.138L260.14 38.2446C190.483 35.0218 134.629 64.2518 101.469 112.855C73.0295 154.538 67.48 201.08 69.3271 231.824L169.147 225.827ZM255.519 138.138L156.103 148.935C155.909 147.144 156.041 146.706 156.078 146.514C156.132 146.232 156.66 143.476 159.317 139.492C162.419 134.841 167.3 130.309 173.084 127.588C178.5 125.04 180.091 126.247 174.102 125.95L169.147 225.827L164.192 325.704C233.707 329.153 291.588 301.622 325.708 250.461C354.764 206.894 358.318 158.502 354.934 127.341L255.519 138.138Z" fill="#4F6396" mask="url(#path-43-inside-4_375_37)"/>
</svg>
