<svg width="370" height="578" viewBox="0 0 370 578" fill="none" xmlns="http://www.w3.org/2000/svg">
<rect width="92.1707" height="88" transform="matrix(-1 0 0 1 93.4878 401.996)" fill="#26A8C0"/>
<rect width="92.1707" height="88" transform="matrix(-1 0 0 1 277.829 49.9961)" fill="#26A8C0"/>
<rect width="92.1707" height="88" transform="matrix(-1 0 0 1 276.745 489.996)" fill="#26A8C0"/>
<rect width="92.1707" height="88" transform="matrix(-1 0 0 1 93.4878 313.996)" fill="#F6B32F"/>
<rect width="92.1707" height="88" transform="matrix(-1 0 0 1 184.574 137.996)" fill="#F6B32F"/>
<rect width="92.1707" height="88" transform="matrix(-1 0 0 1 93.4878 225.996)" fill="#D9375C"/>
<rect width="92.1707" height="88" transform="matrix(-1 0 0 1 276.745 401.996)" fill="#4F6396"/>
<rect width="92.1707" height="88" transform="matrix(-1 0 0 1 276.745 225.996)" fill="#4F6396"/>
<ellipse cx="26.5668" cy="23.5" rx="26.5668" ry="23.5" transform="matrix(-1 0 0 1 73.9695 509.996)" fill="#2C234E"/>
<path d="M185.116 577.996C160.815 577.996 137.509 568.725 120.325 552.221C103.142 535.718 93.4878 513.335 93.4878 489.996C93.4878 466.657 103.142 444.274 120.325 427.771C137.509 411.268 160.815 401.996 185.116 401.996L185.116 448.497C173.656 448.497 162.666 452.869 154.562 460.652C146.459 468.434 141.906 478.99 141.906 489.996C141.906 501.002 146.459 511.558 154.562 519.34C162.666 527.123 173.656 531.495 185.116 531.495L185.116 577.996Z" fill="#F6B32F"/>
<ellipse cx="46.0854" cy="41.5" rx="46.0854" ry="41.5" transform="matrix(-1 0 0 1 232.286 447.996)" fill="#FE2E60"/>
<path d="M2.40161 313.996L93.488 401.465L93.488 226.528L2.40161 313.996Z" fill="#2C234E"/>
<ellipse cx="43.9166" cy="42" rx="43.9166" ry="42" transform="matrix(-1 0 0 1 137.947 271.996)" fill="#51619D"/>
<rect width="92.1707" height="88" transform="matrix(-1 0 0 1 185.659 313.996)" fill="#D9375C"/>
<ellipse cx="26.5668" cy="23.5" rx="26.5668" ry="23.5" transform="matrix(-1 0 0 1 165.056 333.996)" fill="white"/>
<path d="M276.203 314.996C251.901 314.996 228.595 305.619 211.412 288.929C194.228 272.238 184.574 249.6 184.574 225.996L276.203 225.996L276.203 314.996Z" fill="#2C234E"/>
<path d="M276.203 226.996C251.901 226.996 228.595 217.619 211.412 200.929C194.228 184.238 184.574 161.6 184.574 137.996L276.203 137.996L276.203 226.996Z" fill="#4F6396"/>
<path d="M278.233 50.0713L184.149 50.1056L277.425 136.832L278.233 50.0713Z" fill="#D9375C"/>
<rect width="92.1707" height="88" transform="matrix(-1 0 0 1 95.6567 402)" fill="#26A8C0"/>
<rect width="92.1707" height="88" transform="matrix(-1 0 0 1 279.998 50)" fill="#26A8C0"/>
<rect width="92.1707" height="88" transform="matrix(-1 0 0 1 278.914 490)" fill="#26A8C0"/>
<rect width="92.1707" height="88" transform="matrix(-1 0 0 1 95.6567 314)" fill="#F6B32F"/>
<rect width="92.1707" height="88" transform="matrix(-1 0 0 1 186.743 138)" fill="#F6B32F"/>
<rect width="92.1707" height="88" transform="matrix(-1 0 0 1 95.6567 226)" fill="#D9375C"/>
<rect width="92.1707" height="88" transform="matrix(-1 0 0 1 278.914 402)" fill="#4F6396"/>
<rect width="92.1707" height="88" transform="matrix(-1 0 0 1 278.914 226)" fill="#4F6396"/>
<ellipse cx="26.5668" cy="23.5" rx="26.5668" ry="23.5" transform="matrix(-1 0 0 1 76.1382 510)" fill="#2C234E"/>
<path d="M187.285 578C162.984 578 139.678 568.729 122.494 552.225C105.31 535.722 95.6565 513.339 95.6565 490C95.6565 466.661 105.31 444.278 122.494 427.775C139.678 411.271 162.984 402 187.285 402L187.285 448.501C175.825 448.501 164.834 452.873 156.731 460.656C148.627 468.438 144.075 478.994 144.075 490C144.075 501.006 148.627 511.562 156.731 519.344C164.834 527.127 175.825 531.499 187.285 531.499L187.285 578Z" fill="#F6B32F"/>
<ellipse cx="46.0854" cy="41.5" rx="46.0854" ry="41.5" transform="matrix(-1 0 0 1 234.455 448)" fill="#FE2E60"/>
<path d="M4.57031 314L95.6567 401.469L95.6567 226.531L4.57031 314Z" fill="#2C234E"/>
<ellipse cx="43.9166" cy="42" rx="43.9166" ry="42" transform="matrix(-1 0 0 1 140.115 272)" fill="#51619D"/>
<rect width="92.1707" height="88" transform="matrix(-1 0 0 1 187.827 314)" fill="#D9375C"/>
<ellipse cx="26.5668" cy="23.5" rx="26.5668" ry="23.5" transform="matrix(-1 0 0 1 167.224 334)" fill="white"/>
<path d="M278.371 315C254.07 315 230.764 305.623 213.58 288.933C196.397 272.242 186.743 249.604 186.743 226L278.371 226L278.371 315Z" fill="#2C234E"/>
<path d="M278.371 227C254.07 227 230.764 217.623 213.58 200.933C196.397 184.242 186.743 161.604 186.743 138L278.371 138L278.371 227Z" fill="#4F6396"/>
<path d="M280.401 50.0752L186.318 50.1095L279.594 136.836L280.401 50.0752Z" fill="#D9375C"/>
<mask id="path-37-inside-1_375_116" fill="white">
<path d="M95.4972 137.831C97.4938 107.881 81.5574 48.8106 1.83942 52.1346C-1.79072 82.2582 11.8586 141.571 95.4972 137.831Z"/>
</mask>
<path d="M95.4972 137.831L195.276 144.483L189.326 233.736L99.9637 237.731L95.4972 137.831ZM1.83942 52.1346L-97.4423 40.1703L-87.2706 -44.2367L-2.32664 -47.7786L1.83942 52.1346ZM95.4972 137.831L-4.28136 131.18C-4.46695 133.964 -4.19736 135.204 -4.0169 135.916C-3.7857 136.828 -2.98039 139.479 -0.418503 142.864C2.52917 146.757 6.53243 149.878 10.3407 151.543C13.818 153.062 13.4001 151.739 6.00549 152.048L1.83942 52.1346L-2.32664 -47.7786C65.8795 -50.6226 123.028 -25.424 159.041 22.1463C190.706 63.9733 197.451 111.846 195.276 144.483L95.4972 137.831ZM1.83942 52.1346L101.121 64.0988C101.483 61.0936 101.289 59.3481 100.983 57.9095C100.627 56.2428 99.5549 52.5596 96.3266 48.1971C92.6642 43.2479 87.9564 39.8221 84.1031 38.1884C80.7824 36.7804 81.9583 38.3366 91.0306 37.931L95.4972 137.831L99.9637 237.731C31.7289 240.782 -27.4837 217.109 -64.4415 167.166C-96.935 123.256 -101.429 73.2542 -97.4423 40.1703L1.83942 52.1346Z" fill="#26A8C0" mask="url(#path-37-inside-1_375_116)"/>
<mask id="path-39-inside-2_375_116" fill="white">
<path d="M93.0718 140.347C60.5946 138.506 -3.45863 153.203 0.145775 226.719C32.8107 230.066 97.1268 217.479 93.0718 140.347Z"/>
</mask>
<path d="M93.0718 140.347L98.7321 40.5077L188.228 45.5815L192.934 135.097L93.0718 140.347ZM0.145775 226.719L-10.0495 326.198L-95.5265 317.437L-99.7343 231.616L0.145775 226.719ZM93.0718 140.347L87.4115 240.187C87.9973 240.22 86.9075 240.161 85.4229 240.481C83.9569 240.797 84.8281 240.889 87.2118 239.355C90.1234 237.48 94.4512 233.63 97.522 227.654C100.616 221.634 99.8613 218.467 100.026 221.822L0.145775 226.719L-99.7343 231.616C-103.285 159.187 -70.7621 103.196 -21.0554 71.1934C21.3006 43.9234 68.1806 38.7756 98.7321 40.5077L93.0718 140.347ZM0.145775 226.719L10.3411 127.24C9.54435 127.158 10.2393 127.256 11.1771 127.086C12.0934 126.92 10.3744 127.027 7.11494 129.078C3.19129 131.548 -1.54463 136.031 -4.63839 142.236C-7.62568 148.228 -6.5227 150.687 -6.79028 145.597L93.0718 140.347L192.934 135.097C196.734 207.384 166.01 265.39 113.643 298.347C69.5078 326.123 20.9088 329.37 -10.0495 326.198L0.145775 226.719Z" fill="#26A8C0" mask="url(#path-39-inside-2_375_116)"/>
<mask id="path-41-inside-3_375_116" fill="white">
<path d="M185.588 50.1522C153.111 48.2475 89.0572 63.4508 92.6616 139.502C125.327 142.965 189.643 129.944 185.588 50.1522Z"/>
</mask>
<path d="M185.588 50.1522L191.442 -49.6762L280.91 -44.4291L285.459 45.0768L185.588 50.1522ZM92.6616 139.502L82.1186 238.945L-3.16611 229.903L-7.22623 144.236L92.6616 139.502ZM185.588 50.1522L179.733 149.981C180.625 150.033 179.839 149.947 178.632 150.216C177.478 150.473 178.56 150.467 181.027 148.823C184.038 146.818 187.986 143.045 190.653 137.676C193.291 132.367 192.334 130.216 192.55 134.768L92.6616 139.502L-7.22623 144.236C-10.6413 72.1799 20.4206 15.4926 70.1607 -17.6359C112.779 -46.0207 160.255 -51.5054 191.442 -49.6762L185.588 50.1522ZM92.6616 139.502L103.205 40.0592C102.099 39.942 102.47 40.0542 103.098 39.9364C103.666 39.8299 101.7 40.0518 98.3344 42.2431C94.2992 44.8701 89.9649 49.2928 87.2877 54.8479C84.7595 60.0939 86.0362 61.5163 85.7166 55.2276L185.588 50.1522L285.459 45.0768C289.117 117.052 259.797 175.775 207.455 209.852C162.996 238.797 113.722 242.295 82.1186 238.945L92.6616 139.502Z" fill="#4F6396" mask="url(#path-41-inside-3_375_116)"/>
<mask id="path-43-inside-4_375_116" fill="white">
<path d="M186.583 225.827C188.58 195.18 172.644 134.736 92.9256 138.138C89.2955 168.962 102.945 229.654 186.583 225.827Z"/>
</mask>
<path d="M186.583 225.827L286.372 232.328L280.554 321.633L191.154 325.723L186.583 225.827ZM92.9256 138.138L-6.38805 126.442L3.57318 41.8591L88.6628 38.2286L92.9256 138.138ZM186.583 225.827L86.7949 219.326C86.6404 221.697 86.8674 222.487 86.9375 222.77C87.0502 223.225 87.6643 225.524 90.0069 228.69C92.7381 232.382 96.6442 235.592 100.649 237.383C104.359 239.042 104.26 237.745 97.1884 238.047L92.9256 138.138L88.6628 38.2286C157.829 35.2775 215.136 61.55 250.788 109.739C281.971 151.887 288.487 199.868 286.372 232.328L186.583 225.827ZM92.9256 138.138L192.239 149.834C192.544 147.243 192.369 145.965 192.165 144.986C191.92 143.81 191.047 140.508 188.06 136.376C184.629 131.632 180.027 128.103 175.955 126.337C172.39 124.79 173.247 126.333 182.013 125.932L186.583 225.827L191.154 325.723C121.964 328.888 62.5931 304.18 25.9978 253.577C-5.95792 209.389 -10.2628 159.343 -6.38805 126.442L92.9256 138.138Z" fill="#4F6396" mask="url(#path-43-inside-4_375_116)"/>
</svg>
